PathFileType	4	(X/Y/Z)	/Users/itak/Documents/Research/Walk-IL/dataset/trc/00549_00009.trc
DataRate	CameraRate	NumFrames	NumMarkers	Units	OrigDataRate	OrigDataStartFrame	OrigNumFrames
100.000000	100.000000	4	53	mm	100.000000	69	555
Frame#	Time	RPSI			LPSI			L3			STRN			T10			C7			CLAV			RBAK			LBAK			LSHO			LUPA			LAEL			LAOL			LWTS			LWPS			LFRA			LIFD			LHPS			LHTS			RSHO			RUPA			RAEL			RAOL			RWTS			RWPS			RFRA			RIFD			RHTS			RHPS			RBHD			LFHD			RFHD			LBHD			LHIP			RHIP			RASI			LASI			LKNE			LTHI			LANK			LTIP			LTOE			LMT1			LMT5			LHEE			RKNE			RTHI			RANK			RTIP			RTOE			RMT1			RMT5			RHEE			
		X1	Y1	Z1	X2	Y2	Z2	X3	Y3	Z3	X4	Y4	Z4	X5	Y5	Z5	X6	Y6	Z6	X7	Y7	Z7	X8	Y8	Z8	X9	Y9	Z9	X10	Y10	Z10	X11	Y11	Z11	X12	Y12	Z12	X13	Y13	Z13	X14	Y14	Z14	X15	Y15	Z15	X16	Y16	Z16	X17	Y17	Z17	X18	Y18	Z18	X19	Y19	Z19	X20	Y20	Z20	X21	Y21	Z21	X22	Y22	Z22	X23	Y23	Z23	X24	Y24	Z24	X25	Y25	Z25	X26	Y26	Z26	X27	Y27	Z27	X28	Y28	Z28	X29	Y29	Z29	X30	Y30	Z30	X31	Y31	Z31	X32	Y32	Z32	X33	Y33	Z33	X34	Y34	Z34	X35	Y35	Z35	X36	Y36	Z36	X37	Y37	Z37	X38	Y38	Z38	X39	Y39	Z39	X40	Y40	Z40	X41	Y41	Z41	X42	Y42	Z42	X43	Y43	Z43	X44	Y44	Z44	X45	Y45	Z45	X46	Y46	Z46	X47	Y47	Z47	X48	Y48	Z48	X49	Y49	Z49	X50	Y50	Z50	X51	Y51	Z51	X52	Y52	Z52	X53	Y53	Z53	

70	0.6900000000000001	-898.62939453125	1018.817199707031	288.5924682617188	-891.14892578125	1022.2275390625	154.1528930664062	-889.3218383789062	1109.756103515625	218.3107299804688	-661.5401000976562	1298.619384765625	218.1896362304688	-904.3125	1234.7412109375	219.7587585449219	-858.4198608398438	1508.352172851562	235.2323150634766	-681.412353515625	1409.919921875	219.5707092285156	-926.0476684570312	1383.059448242188	321.4976806640625	-893.8302612304688	1455.87451171875	143.9968566894531	-797.7880249023438	1483.629638671875	61.58356094360352	-810.6507568359375	1359.150634765625	-20.65342712402344	-792.6507568359375	1136.700073242188	-43.40127944946289	-878.746337890625	1129.485107421875	9.199101448059082	-702.5512084960938	892.0437622070312	1.379216074943542	-749.4060668945312	869.8579711914062	-70.07559967041016	-771.1676635742188	1049.915649414062	-50.73685836791992	-707.1341552734375	721.1185302734375	-4.523349761962891	-740.4264526367188	810.1351928710938	-61.18426513671875	-683.785400390625	817.8305053710938	-20.07684326171875	-794.7783813476562	1470.955444335938	388.0006103515625	-812.2235107421875	1406.131591796875	456.0151672363281	-814.6109008789062	1117.440307617188	505.8304748535156	-870.51806640625	1101.074340820312	480.38818359375	-690.1436767578125	892.2078857421875	461.13671875	-729.8328247070312	874.3895263671875	529.794921875	-803.9102172851562	1061.762451171875	512.6903076171875	-681.8004760742188	718.0535888671875	469.0243835449219	-663.3160400390625	800.2398071289062	473.9033203125	-715.1666870117188	798.7545776367188	526.6483764648438	-796.8724975585938	1685.027099609375	292.2033386230469	-631.1104125976562	1718.478881835938	171.6272735595703	-661.1559448242188	1715.017944335938	311.9685363769531	-755.05712890625	1688.091918945312	131.7213897705078	-761.944091796875	939.3654174804688	27.17990112304688	-780.9183349609375	943.1942749023438	416.60107421875	-692.3189697265625	972.5556640625	359.2776184082031	-682.778076171875	965.8865356445312	82.12876129150391	-746.7239379882812	495.0398559570312	102.5561218261719	-739.6964721679688	658.3134155273438	59.26789474487305	-834.92626953125	30.31869506835938	121.3619384765625	-814.072265625	249.9669799804688	101.4111785888672	-624.7279663085938	39.98246765136719	174.9480133056641	-694.915771484375	42.41837310791016	212.7816162109375	-712.7671508789062	33.87929534912109	105.1725921630859	-903.5614624023438	35.95412063598633	177.8537292480469	-766.1859130859375	497.7603759765625	369.9339599609375	-744.0291137695312	787.3146362304688	413.2684020996094	-861.7393798828125	35.0579833984375	357.6422729492188	-772.1954956054688	354.9969787597656	359.0848693847656	-639.763427734375	39.84572982788086	324.6299438476562	-701.7876586914062	38.97687911987305	280.589111328125	-728.2992553710938	37.39209747314453	381.7168579101562	-914.2056884765625	29.93993949890137	299.2277221679688	
71	0.7000000000000001	-898.308349609375	1018.827209472656	287.8149719238281	-890.68994140625	1022.184143066406	153.3741912841797	-888.9067993164062	1109.77392578125	217.5034484863281	-660.9312133789062	1298.519165039062	217.5092620849609	-903.787353515625	1234.771606445312	218.9171905517578	-857.7684936523438	1508.34912109375	234.4405212402344	-680.8270874023438	1409.8212890625	218.8704681396484	-925.5252075195312	1383.102661132812	320.6438903808594	-893.1270751953125	1455.91357421875	143.2042388916016	-797.08349609375	1483.579711914062	60.80268859863281	-810.0653686523438	1359.112060546875	-21.41655540466309	-792.4401245117188	1136.61376953125	-44.03955841064453	-878.6027221679688	1129.636108398438	8.501628875732422	-703.2205810546875	891.6272583007812	0.7996506690979004	-750.026123046875	869.6381225585938	-70.70064544677734	-771.243408203125	1049.7294921875	-51.36814498901367	-708.4605712890625	720.6567993164062	-5.06438684463501	-741.2366943359375	809.8851928710938	-61.85391235351562	-684.4468383789062	817.5746459960938	-20.78312110900879	-794.2451171875	1470.90283203125	387.254638671875	-811.837646484375	1406.08544921875	455.2596740722656	-814.6267700195312	1117.526245117188	505.2040710449219	-870.5269165039062	1101.189453125	479.6538391113281	-690.6103515625	891.9891357421875	461.2544860839844	-730.2548217773438	874.36376953125	529.605712890625	-804.0736083984375	1061.835571289062	512.2298583984375	-682.4170532226562	717.9454345703125	469.2303466796875	-663.832275390625	800.0892333984375	473.963134765625	-715.7526245117188	798.71142578125	526.6221313476562	-796.007080078125	1685.029296875	291.5531921386719	-630.1749877929688	1718.2666015625	170.9739227294922	-660.2056274414062	1714.7978515625	311.3297729492188	-754.2197875976562	1688.028442382812	131.093994140625	-761.46630859375	939.1053466796875	26.65428161621094	-780.6743774414062	943.2689819335938	415.8755187988281	-691.9911499023438	972.5537109375	358.6666259765625	-682.3174438476562	965.782470703125	81.5855712890625	-746.806884765625	494.9220581054688	102.1454086303711	-739.5343017578125	658.1544799804688	58.78969955444336	-834.9520263671875	30.27523803710938	121.3620986938477	-814.0694580078125	249.7921600341797	101.283561706543	-624.7531127929688	40.00000381469727	175.0031890869141	-694.9200439453125	42.43621826171875	212.7970275878906	-712.7725830078125	33.8880500793457	105.2052383422852	-903.64794921875	35.92095184326172	177.8514404296875	-765.8143310546875	497.7752685546875	369.5614929199219	-743.9080810546875	787.3770751953125	412.7857360839844	-861.7326049804688	35.0787467956543	357.6125183105469	-771.8240966796875	354.9559631347656	358.7710266113281	-639.7655029296875	39.85398864746094	324.6236572265625	-701.8114013671875	38.97275161743164	280.5858154296875	-728.3133544921875	37.41083145141602	381.6934204101562	-914.21923828125	29.9394645690918	299.2147827148438	
72	0.71	-897.9735717773438	1018.833618164062	287.0307006835938	-890.2228393554688	1022.136474609375	152.5901947021484	-888.4800415039062	1109.789184570312	216.6995086669922	-660.3082275390625	1298.41943359375	216.8079681396484	-903.2346801757812	1234.786376953125	218.0706176757812	-857.0952758789062	1508.344848632812	233.6284332275391	-680.2031860351562	1409.724487304688	218.1558837890625	-924.9803466796875	1383.149536132812	319.7719421386719	-892.4087524414062	1455.954467773438	142.3820648193359	-796.3536376953125	1483.526611328125	59.99953079223633	-809.4617309570312	1359.080322265625	-22.19126510620117	-792.1920776367188	1136.536010742188	-44.71826171875	-878.3923950195312	1129.770141601562	7.779507160186768	-703.795654296875	891.2085571289062	0.1861358284950256	-750.5651245117188	869.41943359375	-71.35575866699219	-771.2304077148438	1049.547241210938	-52.03379440307617	-709.6597900390625	720.2286987304688	-5.685839653015137	-741.9718627929688	809.6366577148438	-62.560302734375	-685.0225830078125	817.3163452148438	-21.52846908569336	-793.6810913085938	1470.85498046875	386.4850463867188	-811.4230346679688	1406.0400390625	454.4787902832031	-814.662841796875	1117.62158203125	504.5595092773438	-870.5604248046875	1101.3203125	478.9157409667969	-690.986328125	891.8263549804688	461.2736206054688	-730.640869140625	874.3525390625	529.361083984375	-804.2477416992188	1061.918334960938	511.7675170898438	-682.9588623046875	717.8663940429688	469.3534240722656	-664.2818603515625	799.9783325195312	473.9843139648438	-716.2861328125	798.6886596679688	526.520263671875	-795.130615234375	1685.029174804688	290.8818664550781	-629.2206420898438	1718.066528320312	170.2952728271484	-659.2308349609375	1714.57666015625	310.6779479980469	-753.3665161132812	1687.967529296875	130.4465789794922	-760.9476928710938	938.8766479492188	26.07562446594238	-780.400634765625	943.3436279296875	415.1359558105469	-691.6744384765625	972.5546264648438	358.0446166992188	-681.8616943359375	965.673828125	81.0201416015625	-746.8982543945312	494.8045654296875	101.7150497436523	-739.3544921875	658.0098266601562	58.27596282958984	-834.9815063476562	30.23186492919922	121.3663711547852	-814.0518798828125	249.6148071289062	101.1490707397461	-624.7852783203125	40.0211296081543	175.0647888183594	-694.9230346679688	42.45998001098633	212.81396484375	-712.78173828125	33.89577484130859	105.2394866943359	-903.750244140625	35.88689422607422	177.8516845703125	-765.3090209960938	497.7861022949219	369.1529846191406	-743.7808837890625	787.439697265625	412.3175354003906	-861.7212524414062	35.1040153503418	357.5756530761719	-771.3739013671875	354.8963317871094	358.4374084472656	-639.7669067382812	39.86258697509766	324.6166687011719	-701.8340454101562	38.96268463134766	280.5828247070312	-728.3314208984375	37.43020629882812	381.6688232421875	-914.2322998046875	29.94194412231445	299.1996154785156	
73	0.72	-897.6253051757812	1018.833068847656	286.2410583496094	-889.7498168945312	1022.079223632812	151.8017730712891	-888.0481567382812	1109.806396484375	215.8962554931641	-659.6650390625	1298.322875976562	216.0788726806641	-902.6587524414062	1234.792724609375	217.2174682617188	-856.395263671875	1508.344970703125	232.7963562011719	-679.5321655273438	1409.631103515625	217.4343566894531	-924.4114379882812	1383.203125	318.8825988769531	-891.6732788085938	1456.000122070312	141.5316162109375	-795.5903930664062	1483.471801757812	59.17999649047852	-808.8330078125	1359.05224609375	-22.9769401550293	-791.9025268554688	1136.464477539062	-45.43873596191406	-878.1127319335938	1129.886840820312	7.039426803588867	-704.2622680664062	890.7913818359375	-0.4653876125812531	-751.0254516601562	869.2025756835938	-72.04386901855469	-771.1271362304688	1049.373657226562	-52.73686218261719	-710.741455078125	719.8285522460938	-6.382055282592773	-742.6343994140625	809.3878784179688	-63.2999382019043	-685.532470703125	817.0411987304688	-22.2946662902832	-793.0823974609375	1470.810913085938	385.6960754394531	-810.9739990234375	1406.001220703125	453.6698913574219	-814.7218017578125	1117.729614257812	503.898681640625	-870.6294555664062	1101.471923828125	478.1817626953125	-691.2542724609375	891.7340087890625	461.1842346191406	-730.9898681640625	874.3601684570312	529.064697265625	-804.4475708007812	1062.014892578125	511.3096923828125	-683.4119262695312	717.8193359375	469.3816528320312	-664.6364135742188	799.9179077148438	473.9647216796875	-716.75927734375	798.6903076171875	526.3410034179688	-794.2376098632812	1685.02294921875	290.1920166015625	-628.2491455078125	1717.878662109375	169.5891418457031	-658.2298583984375	1714.3544921875	310.0130004882812	-752.4974975585938	1687.914672851562	129.7781982421875	-760.3764038085938	938.6834716796875	25.42054748535156	-780.1040649414062	943.4160766601562	414.3907775878906	-691.3674926757812	972.560302734375	357.4085388183594	-681.4014282226562	965.5607299804688	80.42142486572266	-746.9705810546875	494.6869506835938	101.269889831543	-739.140869140625	657.884033203125	57.73705673217773	-835.0160522460938	30.18607711791992	121.3752975463867	-814.0140380859375	249.4422149658203	101.007080078125	-624.824462890625	40.0452880859375	175.1324005126953	-694.9248046875	42.49026870727539	212.8311614990234	-712.7947998046875	33.90096664428711	105.2738189697266	-903.8626098632812	35.85110473632812	177.8503875732422	-764.6580810546875	497.7919311523438	368.7093811035156	-743.6311645507812	787.5047607421875	411.8516235351562	-861.7045288085938	35.13553237915039	357.5308227539062	-770.8345947265625	354.8212280273438	358.0857849121094	-639.7666015625	39.87077713012695	324.6098937988281	-701.8528442382812	38.9454231262207	280.5790405273438	-728.3523559570312	37.45112609863281	381.6444702148438	-914.244140625	29.95058441162109	299.1821594238281	
